<?xml version="1.0" ?><!DOCTYPE svg  PUBLIC '-//W3C//DTD SVG 1.1//EN'  'http://www.w3.org/Graphics/SVG/1.1/DTD/svg11.dtd'><svg height="43.3492mm" style="shape-rendering:geometricPrecision; text-rendering:geometricPrecision; image-rendering:optimizeQuality; fill-rule:evenodd; clip-rule:evenodd" version="1.1" viewBox="0 0 4335 4335" width="43.3492mm" xml:space="preserve" xmlns="http://www.w3.org/2000/svg" xmlns:xlink="http://www.w3.org/1999/xlink"><defs><style type="text/css">
   <![CDATA[
    .fil0 {fill:black}
    .fil2 {fill:aqua}
    .fil1 {fill:#6699FF}
   ]]>
  </style></defs><g id="Layer_x0020_1"><g id="_727056784"><path class="fil0" d="M3057 3384c-12,-63 59,-77 81,-26 -15,43 -44,38 -81,26zm1251 -2477l0 59c-10,130 -79,268 -131,372 -147,294 -94,209 -134,499 -34,248 -225,409 -472,409l41 31c133,97 191,176 191,361 0,222 -266,604 -437,732 -91,68 -183,109 -274,117l-67 0c-93,-8 -184,-52 -273,-134 -21,-20 -37,-26 -56,-48 -20,-23 -25,-33 -48,-56 -23,-23 -28,-31 -49,-56 -121,-145 -215,-248 -304,-424l-51 -109c-8,-17 -9,-18 -19,-29 0,185 17,513 -24,688l-48 0c-25,-52 -32,-260 -32,-328 0,-125 -8,-224 -8,-352 -1,2 -2,4 -3,5l-68 133c-62,103 -89,152 -164,252 -56,75 -87,104 -144,168 -143,162 -250,290 -486,290 -268,0 -511,-350 -616,-560 -39,-78 -96,-182 -96,-296 0,-167 64,-269 191,-354 16,-11 23,-16 33,-31 -156,0 -274,-72 -350,-154 -35,-38 -78,-104 -95,-161 -39,-135 -18,-292 -74,-430 -80,-199 -209,-336 -209,-583 0,-190 199,-304 392,-304 90,0 214,35 288,56 259,72 592,221 806,395 19,15 31,24 48,40 18,16 27,21 44,36 145,128 400,421 438,586l16 -24c16,-28 19,-48 48,-56 -9,-32 -24,-26 -24,-64 0,-48 12,-43 32,-72 -11,-49 -54,-123 -82,-167 -45,-71 -105,-145 -169,-199 -36,-31 -166,-69 -190,-170 68,2 141,50 173,91 74,97 162,133 258,334 69,146 16,67 90,103 8,-95 166,-310 246,-386 70,-67 129,-142 226,-142 -7,26 -35,64 -54,82 -47,47 -257,106 -383,435 -15,39 -13,13 0,39 33,64 22,31 4,109 23,35 39,67 56,80 7,-82 211,-358 266,-414 51,-52 121,-129 174,-170 75,-58 100,-86 191,-146 142,-94 276,-166 446,-234 25,-10 37,-14 65,-23 231,-78 525,-194 745,-35 81,58 116,133 122,213zm-3104 2451c19,-52 96,-38 80,26 -37,11 -64,16 -80,-26zm1748 13c-34,21 -94,6 -72,-32 15,-27 78,-25 72,32zm-1494 -5c-26,33 -92,15 -66,-25 19,-31 99,-15 66,25zm1835 -53c-19,22 -103,16 -60,-36 7,-8 33,-18 48,-13 24,7 24,36 12,49zm-2180 5c-39,13 -91,-7 -69,-45 15,-26 74,-16 69,45zm2253 -100c-9,-40 29,-73 54,-46 15,16 -3,58 -54,46zm-2393 -1c-45,12 -67,-30 -53,-46 19,-22 68,1 53,46zm2531 -146c-10,-37 28,-71 50,-49 13,13 5,36 -2,45 -6,7 -11,11 -22,12 -40,4 -21,-4 -26,-8zm-2668 -1c-4,2 12,13 -25,7 -10,-1 -16,-6 -21,-12 -52,-59 74,-73 47,5zm2809 -145c-21,38 -61,22 -45,-19 15,-39 68,-23 45,19zm-2949 -40c45,3 66,42 37,58 -26,14 -47,-24 -37,-58zm3014 -139l3 40c-17,13 -8,11 -31,15 -28,-30 -5,-53 4,-57 30,-14 23,2 23,2zm-3081 -1c6,-2 -13,-13 19,-4 28,8 22,35 19,57 -42,-1 -50,-16 -37,-53zm2529 -192c135,21 389,153 459,218 -15,53 -70,140 -102,170l-96 -88c-72,-64 -251,-187 -329,-223 39,-36 57,-10 69,-77zm-2333 387c-35,-35 -84,-111 -101,-167 55,-70 337,-200 458,-221 13,65 34,40 69,77 -70,27 -263,163 -330,223 -36,32 -63,59 -95,88zm2894 -368c23,4 35,5 34,32 -1,26 -7,24 -23,30 -28,-17 -25,-34 -11,-63zm-3132 32c-1,-25 7,-25 22,-33 36,23 24,48 0,63 -14,-7 -21,-6 -22,-30zm2227 -12c276,102 170,-55 512,281 44,44 98,90 130,139 -43,55 -162,163 -255,191 -51,-83 -82,-147 -141,-232 -27,-38 -38,-36 -40,-87 -4,-92 -50,-51 -106,-144 -31,-51 -76,-104 -100,-149zm-1676 610c-115,-41 -187,-122 -253,-189 33,-61 199,-208 266,-268 172,-155 176,-94 278,-122 36,-9 66,-22 99,-32 -28,46 -69,92 -98,144 -32,56 -12,34 -61,67 -30,20 -45,36 -47,82 -2,48 -11,44 -37,82l-146 236zm392 40c23,-93 203,-377 256,-454 49,-71 91,-132 142,-210 26,-40 109,-183 140,-215 33,157 62,138 -4,286 -40,90 -86,167 -135,241 -50,76 -178,260 -253,299 -39,20 -94,43 -145,52zm743 -883l282 430c50,73 235,365 258,455 -40,-6 -104,-30 -137,-47 -127,-66 -327,-402 -394,-550 -17,-37 -49,-97 -45,-135 1,-10 34,-144 37,-151zm1443 125c-37,-4 -42,-22 -33,-55 40,2 44,21 33,55zm-3090 -1c-14,-35 -8,-52 33,-55 8,34 6,50 -33,55zm3024 191c-107,-44 -219,-81 -336,-116 -257,-79 -97,-10 -229,-115 -9,-8 -22,-17 -31,-24 -24,-20 -14,-5 -30,-30l600 67c27,60 62,146 26,219zm-2332 -289c-12,21 -37,37 -59,54 -101,80 -17,55 -147,92 -29,8 -57,17 -86,26l-334 110c-43,-58 2,-161 25,-211l602 -72zm1641 -128c206,-22 401,-86 569,89 -157,34 -381,8 -539,-5l-30 -84zm-673 -10c17,2 328,229 398,277 35,24 76,86 106,126 161,219 72,158 110,226 15,26 45,38 64,56 42,39 135,229 154,306 -59,9 -121,25 -185,21 -141,-270 -326,-505 -499,-750 -31,-44 -54,-79 -83,-125 -21,-34 -68,-91 -64,-139zm-878 1012c-71,4 -119,-9 -184,-21 18,-81 106,-254 149,-301 21,-23 40,-24 61,-51 54,-69 -51,-7 113,-231 117,-160 85,-108 238,-219 47,-34 83,-64 128,-96 40,-29 99,-78 138,-93 24,68 -280,445 -316,499 -111,167 -221,325 -327,514zm-594 -914c35,-43 156,-114 237,-121 75,-6 270,9 328,36l-24 81c-162,14 -383,36 -541,4zm2196 126c33,18 103,61 37,89 -186,78 -655,-347 -752,-377l5 -49c163,29 326,80 484,115 163,36 75,67 143,153 15,19 58,55 83,69zm-962 -298c-20,20 -64,42 -89,60 -123,87 -322,237 -457,295 -43,19 -210,72 -230,9 -18,-55 93,-58 151,-145 68,-101 -31,-103 149,-147 79,-20 415,-113 476,-108l1 36zm1661 -82c43,-22 66,35 27,54 -49,24 -74,-29 -27,-54zm-3052 49c-38,16 -92,-3 -67,-42 16,-25 75,-19 67,42zm2468 16l23 13 -22 6c-68,1 -148,23 -216,33 -41,6 -137,-29 -188,-39 -108,-22 -326,-44 -417,-75l2 -58c149,-3 297,11 441,35 121,21 337,80 378,86zm-1901 18l-24 -11 15 -8c51,-6 135,-35 193,-49 67,-15 126,-27 193,-39 130,-22 306,-43 441,-33l2 59c-129,13 -282,46 -410,70 -53,10 -158,47 -199,43 -69,-7 -140,-29 -211,-33zm2677 -219c10,17 15,37 -7,60 -7,8 -34,28 -50,13 -27,-25 9,-93 57,-74zm-3462 -1c54,-21 83,51 58,74 -20,19 -83,-21 -58,-74zm3492 -94c-30,-40 -8,-91 45,-76 23,42 9,84 -45,76zm-3522 -1c-52,7 -66,-33 -46,-76 58,-16 74,39 46,76zm1904 127c6,-25 1,-14 30,-32l253 -155c69,-42 74,-65 171,-70 72,-3 146,-7 218,-10 172,-7 768,-32 882,46 -28,123 -117,244 -217,280 -236,86 -824,-135 -1338,-59zm-1842 -229c309,-80 778,-48 1122,-28 57,3 53,8 91,32 26,17 46,28 69,43 48,30 263,156 284,181 -50,2 -156,-19 -228,-18 -210,1 -473,42 -683,68 -139,17 -311,57 -443,8 -90,-34 -197,-169 -212,-285zm3499 -106c-28,-34 -11,-82 22,-75 31,6 39,78 -22,75zm-3638 -67c33,-15 48,-8 51,29 3,42 -18,44 -50,35 -9,-31 -14,-32 -1,-63zm2493 78c17,-22 98,-72 126,-93 44,-33 77,-65 116,-100 152,-138 43,-117 280,-145 59,-7 552,-71 572,9 10,39 8,165 -3,198 -14,13 -7,8 -26,17 -42,20 -163,49 -206,57 -129,24 -749,60 -858,57zm-2406 -132c-2,-35 -11,-184 4,-208 36,-61 514,-5 577,3 220,26 116,-1 277,147l210 166c3,2 11,8 14,11 8,6 8,7 14,13 -218,-1 -965,-33 -1095,-132zm3596 -69c-24,-80 63,-114 50,-15 -23,18 -22,20 -50,15zm-3737 -67c33,-31 67,34 43,60 -34,36 -72,-32 -43,-60zm3854 -178c4,5 11,6 11,26 0,3 -6,22 -7,23 -16,26 -75,30 -43,-51l38 2zm-3928 -1c29,-8 31,-1 51,19l-4 44c-57,9 -67,-33 -47,-63zm3029 70c16,-36 40,-61 63,-99 19,-33 36,-61 55,-98 86,-166 31,-147 145,-161 201,-25 340,47 384,212 -49,52 -537,135 -646,146zm-2774 -146c47,-170 184,-239 392,-212 71,9 68,1 91,62 24,63 69,144 103,201 20,34 45,60 60,95 -115,-13 -587,-92 -646,-146zm3710 -8c-10,-37 -7,-62 40,-55 7,39 -2,55 -40,55zm-4001 -1c-56,-1 -53,-48 -29,-59 34,-15 37,35 29,59zm3780 -102c35,-17 94,-3 74,34 -11,20 -85,32 -74,-34zm-3631 41c-9,-49 34,-58 75,-43 6,54 -31,53 -75,43zm1668 638c49,89 48,60 47,177 -66,-21 -360,-213 -425,-263 -89,-67 -288,-254 -347,-333 -42,-57 -134,-214 -158,-294 93,21 241,96 319,141 212,120 444,356 564,573zm329 177c-4,-119 -10,-82 42,-176 121,-219 348,-453 569,-576 58,-32 248,-128 315,-136 -91,244 -240,396 -384,523 -128,112 -406,308 -541,365zm1905 -947c21,-23 31,-5 36,-3 9,30 2,60 -36,43 -6,-13 -13,-26 0,-40zm-4130 -7c39,-4 48,15 32,48 -33,13 -48,-16 -32,-48zm3748 -32c20,-51 100,-44 108,18 -41,37 -94,23 -108,-18zm-3410 -25c62,-31 108,33 46,57 -57,22 -121,-20 -46,-57zm3609 -13c46,-22 85,-10 88,42 -33,13 -100,24 -88,-42zm-3821 41c2,-58 44,-59 88,-42 10,65 -49,57 -88,42zm3981 -105c46,-9 56,21 32,50 -33,4 -40,-12 -32,-50zm-4087 49c-24,-32 -1,-65 23,-54 24,11 22,59 -23,54zm3459 -27c-40,19 -104,7 -74,-33 13,-17 76,-26 74,33zm-2800 -8c5,-51 48,-43 80,-27 -1,29 -3,40 -33,44 -31,4 -32,-3 -47,-17zm2897 -67c48,-37 139,-31 136,54 -64,40 -145,31 -136,-54zm-3085 -13c96,-38 131,56 54,83 -60,21 -124,-8 -93,-59 14,-23 20,-17 38,-24zm3574 17c-33,3 -42,-2 -46,-32 23,-25 45,3 46,32zm-266 -44c55,-30 157,-29 144,59 -55,41 -160,29 -144,-59zm-3527 -15c93,-27 130,64 40,92 -88,27 -153,-59 -40,-92zm-176 58c-1,-19 -1,-27 13,-35 24,-14 27,3 28,3 12,31 -6,36 -40,32z"/><path class="fil1" d="M473 1758c16,116 122,251 212,285 132,50 304,10 443,-8 210,-26 473,-67 683,-68 72,0 179,21 228,18 -21,-26 -236,-151 -284,-181 -24,-15 -43,-26 -69,-43 -38,-24 -34,-29 -91,-32 -344,-19 -813,-52 -1122,28z"/><path class="fil1" d="M2314 1987c514,-76 1102,144 1338,59 101,-37 190,-157 217,-280 -114,-78 -710,-53 -882,-46 -72,3 -146,7 -218,10 -98,4 -102,28 -171,70l-253 155c-30,19 -24,7 -30,32z"/><path class="fil2" d="M422 1531c130,99 877,130 1095,132 -6,-6 -6,-7 -14,-13 -3,-3 -11,-9 -14,-11l-210 -166c-161,-148 -57,-121 -277,-147 -62,-7 -540,-64 -577,-3 -14,24 -6,173 -4,208z"/><path class="fil2" d="M2827 1663c109,3 729,-33 858,-57 43,-8 164,-37 206,-57 19,-9 12,-4 26,-17 11,-33 13,-159 3,-198 -20,-79 -513,-15 -572,-9 -237,28 -128,6 -280,145 -39,35 -71,68 -116,100 -28,21 -109,70 -126,93z"/><path class="fil2" d="M2033 1887c1,-117 2,-88 -47,-177 -119,-216 -352,-453 -564,-573 -78,-45 -226,-119 -319,-141 24,80 116,237 158,294 59,80 258,266 347,333 65,50 360,242 425,263z"/><path class="fil2" d="M2315 1887c136,-57 414,-253 541,-365 145,-127 294,-279 384,-523 -67,8 -257,104 -315,136 -220,123 -447,357 -569,576 -52,94 -45,57 -42,176z"/><path class="fil1" d="M1408 3260c106,-189 216,-347 327,-514 36,-54 340,-431 316,-499 -39,15 -98,64 -138,93 -45,32 -80,62 -128,96 -153,111 -121,59 -238,219 -164,224 -59,162 -113,231 -21,27 -40,28 -61,51 -43,47 -132,220 -149,301 65,12 113,25 184,21z"/><path class="fil1" d="M2684 2524c-69,-48 -380,-275 -398,-277 -4,48 43,105 64,139 29,46 52,81 83,125 173,245 358,479 499,750 65,4 126,-12 185,-21 -19,-78 -112,-268 -154,-306 -19,-18 -49,-29 -64,-56 -38,-69 51,-7 -110,-226 -30,-41 -71,-102 -106,-126z"/><path class="fil2" d="M1284 2967c26,-37 35,-33 37,-82 2,-46 17,-62 47,-82 49,-33 29,-11 61,-67 30,-52 70,-98 98,-144 -32,9 -63,22 -99,32 -103,27 -107,-33 -278,122 -66,60 -233,207 -266,268 66,67 139,148 253,189l146 -236z"/><path class="fil2" d="M2815 2593c24,44 70,97 100,149 56,93 102,52 106,144 2,51 13,48 40,87 60,85 90,148 141,232 93,-28 212,-136 255,-191 -32,-50 -86,-96 -130,-139 -342,-337 -236,-179 -512,-281z"/><path class="fil1" d="M3235 1287c109,-11 597,-94 646,-146 -44,-165 -183,-237 -384,-212 -114,14 -58,-5 -145,161 -19,36 -35,65 -55,98 -23,38 -47,63 -63,99z"/><path class="fil1" d="M461 1141c59,53 532,133 646,146 -15,-35 -40,-61 -60,-95 -34,-57 -79,-137 -103,-201 -23,-61 -20,-53 -91,-62 -208,-27 -345,43 -392,212z"/><path class="fil2" d="M1531 3243c50,-9 106,-32 145,-52 75,-38 203,-223 253,-299 49,-75 94,-152 135,-241 67,-148 37,-129 4,-286 -31,32 -114,175 -140,215 -51,78 -93,139 -142,210 -52,76 -232,361 -256,454z"/><path class="fil2" d="M2273 2360c-3,7 -36,142 -37,151 -4,39 28,99 45,135 68,149 267,484 394,550 33,17 97,41 137,47 -23,-90 -208,-382 -258,-455l-282 -430z"/><path class="fil2" d="M2048 2173l-1 -36c-61,-5 -396,89 -476,108 -180,44 -81,46 -149,147 -58,87 -168,90 -151,145 20,63 187,9 230,-9 135,-58 334,-208 457,-295 25,-18 69,-40 89,-60z"/><path class="fil2" d="M2295 2184c97,30 566,455 752,377 67,-28 -3,-71 -37,-89 -26,-14 -69,-50 -83,-69 -68,-87 20,-117 -143,-153 -158,-35 -321,-86 -484,-115l-5 49z"/><path class="fil2" d="M717 2457c-22,50 -68,153 -25,211l334 -110c29,-9 57,-18 86,-26 130,-38 46,-13 147,-92 22,-17 47,-33 59,-54l-602 72z"/><path class="fil2" d="M3651 2675c35,-73 1,-159 -26,-219l-600 -67c15,24 6,10 30,30 9,8 22,17 31,24 132,105 -28,37 229,115 117,36 230,72 336,116z"/><path class="fil1" d="M3159 2554c-12,67 -30,40 -69,77 78,36 257,160 329,223l96 88c32,-30 88,-117 102,-170 -70,-65 -324,-197 -459,-218z"/><path class="fil1" d="M826 2941c32,-29 59,-56 95,-88 68,-59 261,-196 330,-223 -35,-37 -56,-12 -69,-77 -121,21 -403,151 -458,221 17,56 66,132 101,167z"/><path class="fil2" d="M3125 2175l0 -18c-41,-6 -257,-66 -378,-86 -143,-24 -291,-38 -441,-35l-2 58c91,31 310,53 417,75 51,10 147,45 188,39 68,-10 148,-31 216,-33z"/><path class="fil2" d="M1215 2156c8,19 -3,6 9,19 71,3 142,26 211,33 41,4 146,-33 199,-43 128,-24 281,-56 410,-70l-2 -59c-134,-11 -311,11 -441,33 -67,11 -126,23 -193,39 -58,13 -142,43 -193,49z"/><path class="fil1" d="M814 2346c158,32 379,10 541,-4l24 -81c-58,-27 -253,-41 -328,-36 -80,6 -202,78 -237,121z"/><path class="fil1" d="M2960 2257l30 84c158,13 382,39 539,5 -167,-175 -363,-111 -569,-89z"/><path class="fil2" d="M363 690c-113,33 -48,119 40,92 89,-28 53,-119 -40,-92z"/><path class="fil2" d="M3890 705c-16,88 90,100 144,59 12,-88 -89,-89 -144,-59z"/><path class="fil1" d="M583 733c-18,7 -24,1 -38,24 -31,51 33,80 93,59 76,-27 42,-121 -54,-83z"/><path class="fil1" d="M3667 746c-9,85 73,95 136,54 2,-85 -89,-91 -136,-54z"/><path class="fil2" d="M428 876c-75,37 -12,80 46,57 62,-24 17,-88 -46,-57z"/><path class="fil2" d="M3838 901c14,42 67,55 108,18 -8,-62 -89,-70 -108,-18z"/><path class="fil1" d="M3901 1955c-48,-19 -84,48 -57,74 16,15 43,-5 50,-13 23,-24 17,-43 7,-60z"/><path class="fil1" d="M440 1955c-25,52 38,93 58,74 25,-23 -4,-94 -58,-74z"/><path class="fil2" d="M410 1860c28,-37 12,-92 -46,-76 -21,44 -7,84 46,76z"/><path class="fil2" d="M3932 1861c54,8 68,-34 45,-76 -53,-15 -75,37 -45,76z"/><path class="fil1" d="M217 903c40,15 98,23 88,-42 -45,-17 -87,-16 -88,42z"/><path class="fil1" d="M4038 862c-12,66 55,55 88,42 -3,-52 -42,-64 -88,-42z"/><path class="fil1" d="M1204 3358c17,42 43,37 80,26 15,-64 -62,-78 -80,-26z"/><path class="fil1" d="M3057 3384c38,12 66,17 81,-26 -22,-51 -94,-36 -81,26z"/><path class="fil2" d="M3294 3313c12,-13 12,-42 -12,-49 -15,-5 -42,5 -48,13 -42,52 41,58 60,36z"/><path class="fil2" d="M281 1396c-29,28 9,96 43,60 24,-26 -10,-91 -43,-60z"/><path class="fil1" d="M334 1585c-13,31 -9,33 1,63 32,9 53,7 50,-35 -3,-36 -18,-44 -51,-29z"/><path class="fil2" d="M657 2140c8,-61 -51,-67 -67,-42 -25,39 29,59 67,42z"/><path class="fil2" d="M770 813c15,14 16,21 47,17 30,-4 32,-15 33,-44 -32,-16 -75,-25 -80,27z"/><path class="fil2" d="M1459 3366c32,-40 -47,-56 -66,-25 -26,41 40,58 66,25z"/><path class="fil2" d="M3949 1030c-10,65 64,54 74,34 20,-37 -39,-50 -74,-34z"/><path class="fil2" d="M1114 3318c6,-60 -54,-70 -69,-45 -22,37 30,58 69,45z"/><path class="fil2" d="M3709 2091c-48,25 -22,78 27,54 39,-19 16,-76 -27,-54z"/><path class="fil2" d="M3571 820c3,-59 -61,-51 -74,-33 -30,41 34,53 74,33z"/><path class="fil1" d="M3972 1652c60,3 53,-69 22,-75 -33,-7 -50,41 -22,75z"/><path class="fil2" d="M2880 3340c-22,38 38,52 72,32 6,-56 -57,-59 -72,-32z"/><path class="fil2" d="M318 1072c44,10 81,11 75,-43 -41,-16 -84,-6 -75,43z"/><path class="fil2" d="M4018 1463c28,4 26,2 50,-15 13,-99 -74,-65 -50,15z"/><path class="fil1" d="M206 1217c-20,30 -11,72 47,63l4 -44c-21,-20 -22,-28 -51,-19z"/><path class="fil1" d="M4096 1216c-33,81 26,76 43,51 1,-1 7,-19 7,-23 0,-21 -7,-21 -11,-26l-38 -2z"/><path class="fil2" d="M790 3066c6,6 12,11 21,12 37,6 21,-5 25,-7 27,-78 -98,-64 -47,-5z"/><path class="fil2" d="M3505 3071c6,3 -13,12 26,8 10,-1 16,-5 22,-12 8,-9 15,-32 2,-45 -22,-22 -61,12 -50,49z"/><path class="fil1" d="M3367 3219c50,12 68,-30 54,-46 -25,-27 -62,6 -54,46z"/><path class="fil1" d="M921 3172c-14,16 8,58 53,46 15,-45 -34,-67 -53,-46z"/><path class="fil1" d="M3646 2926c23,-42 -30,-58 -45,-19 -16,41 25,57 45,19z"/><path class="fil1" d="M733 2944c29,-16 9,-56 -37,-58 -10,34 11,73 37,58z"/><path class="fil2" d="M170 1132c8,-24 5,-74 -29,-59 -24,11 -27,58 29,59z"/><path class="fil2" d="M668 2799c4,-22 10,-49 -19,-57 -32,-9 -13,1 -19,4 -13,37 -4,53 37,53z"/><path class="fil2" d="M4171 1133c38,-1 47,-16 40,-55 -47,-6 -50,19 -40,55z"/><path class="fil2" d="M111 847c45,5 47,-42 23,-54 -23,-11 -47,22 -23,54z"/><path class="fil1" d="M3732 2636c16,-7 22,-5 23,-30 1,-27 -11,-28 -34,-32 -13,29 -17,46 11,63z"/><path class="fil2" d="M4220 981c38,17 45,-13 36,-43 -4,-2 -15,-21 -36,3 -13,15 -7,27 0,40z"/><path class="fil2" d="M3688 2745c-9,4 -32,27 -4,57 22,-4 14,-2 31,-15l-3 -40c-1,0 7,-16 -23,-2z"/><path class="fil2" d="M4230 848c24,-29 13,-59 -32,-50 -8,38 -1,54 32,50z"/><path class="fil1" d="M610 2635c24,-15 36,-40 0,-63 -15,8 -24,9 -22,33 1,24 8,23 22,30z"/><path class="fil2" d="M122 981c17,-32 7,-52 -32,-48 -16,32 -2,60 32,48z"/><path class="fil2" d="M627 2484c39,-5 41,-21 33,-55 -41,3 -46,20 -33,55z"/><path class="fil2" d="M3717 2485c11,-34 6,-53 -33,-55 -9,33 -4,51 33,55z"/><path class="fil2" d="M187 748c34,4 53,-1 40,-32 -1,0 -4,-17 -28,-3 -14,8 -13,16 -13,35z"/><path class="fil2" d="M4110 718c4,30 13,35 46,32 -1,-29 -23,-57 -46,-32z"/><polygon class="fil2" points="3125,2175 3147,2169 3125,2156 "/><path class="fil2" d="M1224 2174c-13,-12 -1,0 -9,-19l-15 8 24 11z"/></g></g></svg>